SplineFontDB: 3.2
FontName: S4F_A350_AFSCP_display
FullName: S4F_A350_AFSCP_display
FamilyName: S4F_A350_AFSCP_display
Weight: Book
Copyright: Copyright (c) 2021, Jkaled777
Version: 001.000
ItalicAngle: 0
UnderlinePosition: -100
UnderlineWidth: 50
Ascent: 800
Descent: 200
InvalidEm: 0
sfntRevision: 0x00010000
LayerCount: 2
Layer: 0 1 "Hinten" 1
Layer: 1 1 "Vorne" 0
XUID: [1021 631 -243766293 30409]
StyleMap: 0x0000
FSType: 0
OS2Version: 4
OS2_WeightWidthSlopeOnly: 0
OS2_UseTypoMetrics: 1
CreationTime: 1603675803
ModificationTime: 1706370840
PfmFamily: 17
TTFWeight: 400
TTFWidth: 5
LineGap: 90
VLineGap: 0
Panose: 2 0 5 3 0 0 0 0 0 0
OS2TypoAscent: 800
OS2TypoAOffset: 0
OS2TypoDescent: -200
OS2TypoDOffset: 0
OS2TypoLinegap: 90
OS2WinAscent: 804
OS2WinAOffset: 0
OS2WinDescent: 192
OS2WinDOffset: 0
HheadAscent: 804
HheadAOffset: 0
HheadDescent: -192
HheadDOffset: 0
OS2SubXSize: 650
OS2SubYSize: 699
OS2SubXOff: 0
OS2SubYOff: 140
OS2SupXSize: 650
OS2SupYSize: 699
OS2SupXOff: 0
OS2SupYOff: 479
OS2StrikeYSize: 49
OS2StrikeYPos: 258
OS2CapHeight: 785
OS2XHeight: 377
OS2Vendor: 'PfEd'
OS2CodePages: 00000001.00000000
OS2UnicodeRanges: 00000003.00000000.00000000.00000000
MarkAttachClasses: 1
DEI: 91125
ShortTable: maxp 16
  1
  0
  32
  210
  7
  0
  0
  2
  0
  1
  1
  0
  64
  0
  0
  0
EndShort
LangName: 1033 "" "" "Regular" "FontForge 2.0 : S4F_A350_AFSCP_display : 14-4-2021" "" "Version 001.000"
GaspTable: 1 65535 2 0
Encoding: UnicodeBmp
UnicodeInterp: none
NameList: AGL For New Fonts
DisplaySize: -48
AntiAlias: 1
FitToEm: 0
WinInfo: 58 29 11
BeginChars: 65539 36

StartChar: .notdef
Encoding: 65536 -1 0
Width: 500
GlyphClass: 1
Flags: W
LayerCount: 2
Fore
SplineSet
50 0 m 1,0,-1
 50 533 l 1,1,-1
 450 533 l 1,2,-1
 450 0 l 1,3,-1
 50 0 l 1,0,-1
100 50 m 1,4,-1
 400 50 l 1,5,-1
 400 483 l 1,6,-1
 100 483 l 1,7,-1
 100 50 l 1,4,-1
EndSplineSet
Validated: 1
EndChar

StartChar: plus
Encoding: 43 43 3
Width: 600
GlyphClass: 1
Flags: W
LayerCount: 2
Fore
SplineSet
354 403 m 0,0,1
 350 396 350 396 343 396 c 2,2,-1
 257 396 l 2,3,4
 250 396 250 396 246 403 c 0,5,6
 235 421 235 421 226 437 c 0,7,8
 221 446 221 446 221 457 c 128,-1,9
 221 468 221 468 226 477 c 0,10,11
 274 557 274 557 287 578 c 0,12,13
 291 585 291 585 300 585 c 128,-1,14
 309 585 309 585 313 578 c 0,15,16
 320 567 320 567 343 528.5 c 128,-1,17
 366 490 366 490 374 477 c 0,18,19
 380 468 380 468 380 457.5 c 128,-1,20
 380 447 380 447 374 437 c 0,21,22
 361 415 361 415 354 403 c 0,0,1
167 366 m 0,23,24
 185 377 185 377 207 377 c 2,25,-1
 427 377 l 2,26,27
 434 377 434 377 440 372 c 0,28,29
 455 355 455 355 487 321 c 0,30,31
 496 311 496 311 496 298 c 0,32,33
 496 284 496 284 486 274 c 0,34,35
 461 248 461 248 442 230 c 0,36,37
 435 222 435 222 423 222 c 2,38,-1
 204 222 l 2,39,40
 185 222 185 222 169 231 c 0,41,42
 164 234 164 234 93 275 c 0,43,44
 80 282 80 282 80 298 c 0,45,46
 80 313 80 313 93 321 c 0,47,48
 100 325 100 325 127 341.5 c 128,-1,49
 154 358 154 358 167 366 c 0,23,24
354 196 m 0,50,51
 361 184 361 184 374 162 c 0,52,53
 380 152 380 152 380 141.5 c 128,-1,54
 380 131 380 131 374 122 c 0,55,56
 330 48 330 48 313 21 c 0,57,58
 309 14 309 14 300 14 c 128,-1,59
 291 14 291 14 287 21 c 0,60,61
 280 33 280 33 257 71 c 128,-1,62
 234 109 234 109 226 122 c 0,63,64
 221 131 221 131 221 142 c 128,-1,65
 221 153 221 153 226 162 c 0,66,67
 242 189 242 189 246 196 c 0,68,69
 250 202 250 202 257 202 c 2,70,-1
 343 202 l 2,71,72
 350 202 350 202 354 196 c 0,50,51
EndSplineSet
Validated: 1
EndChar

StartChar: hyphen
Encoding: 45 45 4
Width: 600
GlyphClass: 1
Flags: W
LayerCount: 2
Fore
SplineSet
167 363 m 0,0,1
 185 374 185 374 207 374 c 2,2,-1
 427 374 l 2,3,4
 434 374 434 374 440 368 c 0,5,6
 455 352 455 352 487 318 c 0,7,8
 496 308 496 308 496 295 c 0,9,10
 496 281 496 281 486 271 c 0,11,12
 461 245 461 245 442 227 c 0,13,14
 435 219 435 219 423 219 c 2,15,-1
 204 219 l 2,16,17
 185 219 185 219 169 228 c 0,18,19
 164 231 164 231 93 272 c 0,20,21
 80 279 80 279 80 295 c 0,22,23
 80 310 80 310 93 318 c 0,24,25
 100 322 100 322 127 338.5 c 128,-1,26
 154 355 154 355 167 363 c 0,0,1
EndSplineSet
Validated: 1
EndChar

StartChar: period
Encoding: 46 46 5
Width: 180
GlyphClass: 1
Flags: W
LayerCount: 2
Fore
SplineSet
28 -100 m 128,-1,1
 28 -71 28 -71 49 -50 c 128,-1,2
 70 -29 70 -29 99 -29 c 128,-1,3
 128 -29 128 -29 149 -50 c 128,-1,4
 170 -71 170 -71 170 -100 c 128,-1,5
 170 -129 170 -129 149 -150 c 128,-1,6
 128 -171 128 -171 99 -171 c 128,-1,7
 70 -171 70 -171 49 -150 c 128,-1,0
 28 -129 28 -129 28 -100 c 128,-1,1
EndSplineSet
Validated: 1
EndChar

StartChar: slash
Encoding: 47 47 6
Width: 1000
GlyphClass: 1
Flags: W
LayerCount: 2
Fore
SplineSet
742 786 m 1,0,1
 771 786 771 786 810 786 c 0,2,3
 824 786 824 786 852 786 c 128,-1,4
 880 786 880 786 894 786 c 0,5,6
 903 786 903 786 913 786 c 1,7,8
 786 598 786 598 552 251 c 128,-1,9
 318 -96 318 -96 258 -186 c 1,10,11
 243 -186 243 -186 215 -186 c 128,-1,12
 187 -186 187 -186 172 -186 c 2,13,-1
 87 -186 l 1,14,15
 163 -74 163 -74 301 131 c 128,-1,16
 439 336 439 336 492 414 c 0,17,18
 519 454 519 454 607 584.5 c 128,-1,19
 695 715 695 715 742 786 c 1,0,1
EndSplineSet
Validated: 1
EndChar

StartChar: zero
Encoding: 48 48 7
Width: 800
GlyphClass: 1
Flags: W
LayerCount: 2
Fore
SplineSet
695 319 m 0,0,1
 685 308 685 308 666 307 c 0,2,3
 665 307 665 307 659 306.5 c 128,-1,4
 653 306 653 306 649 306 c 0,5,6
 627 306 627 306 611 317 c 0,7,8
 592 329 592 329 548 382 c 0,9,10
 541 390 541 390 541 401 c 0,11,12
 541 430 541 430 541 453 c 0,13,14
 541 481 541 481 541 502.5 c 128,-1,15
 541 524 541 524 541 551.5 c 128,-1,16
 541 579 541 579 541 612 c 0,17,18
 541 625 541 625 547 637 c 0,19,20
 580 710 580 710 602 758 c 0,21,22
 608 771 608 771 623 771 c 0,23,24
 631 771 631 771 638 767 c 0,25,26
 655 753 655 753 668 735 c 0,27,28
 682 716 682 716 692 694 c 0,29,30
 703 669 703 669 703 641 c 2,31,-1
 703 346 l 2,32,33
 703 339 703 339 702 332 c 0,34,35
 700 324 700 324 695 319 c 0,0,1
114 325 m 0,36,37
 110 327 110 327 107 330 c 0,38,39
 97 339 97 339 97 352 c 2,40,-1
 97 645 l 2,41,42
 97 681 97 681 115 711 c 0,43,44
 115 712 115 712 121 723 c 0,45,46
 127 733 127 733 139 733 c 0,47,48
 147 733 147 733 152 727 c 0,49,50
 158 722 158 722 196 684 c 128,-1,51
 234 646 234 646 247 633 c 0,52,53
 259 621 259 621 259 605 c 2,54,-1
 259 388 l 2,55,56
 259 377 259 377 249 372 c 0,57,58
 238 365 238 365 204.5 346 c 128,-1,59
 171 327 171 327 162 322 c 0,60,61
 152 317 152 317 141 317 c 0,62,63
 132 317 132 317 124 320 c 0,64,65
 117 323 117 323 114 325 c 0,36,37
153 743 m 0,66,67
 151 751 151 751 153 754.5 c 128,-1,68
 155 758 155 758 164 767 c 0,69,70
 169 772 169 772 179 778 c 0,71,72
 200 793 200 793 226 793 c 2,73,-1
 555 793 l 1,74,-1
 572 792 l 2,75,76
 573 792 573 792 576 791.5 c 128,-1,77
 579 791 579 791 581 791 c 0,78,79
 589 790 589 790 594 785 c 0,80,81
 600 779 600 779 598 771 c 0,82,83
 593 761 593 761 542 647 c 0,84,85
 536 633 536 633 521 633 c 2,86,-1
 272 633 l 2,87,88
 260 633 260 633 252 642 c 0,89,90
 157 735 157 735 153 743 c 0,66,67
695 278 m 0,91,92
 700 273 700 273 702 265 c 0,93,94
 703 258 703 258 703 251 c 2,95,-1
 703 -45 l 2,96,97
 703 -72 703 -72 692 -97 c 0,98,99
 682 -119 682 -119 668 -138 c 0,100,101
 655 -156 655 -156 638 -170 c 0,102,103
 631 -175 631 -175 623 -175 c 0,104,105
 608 -175 608 -175 602 -161 c 0,106,107
 600 -157 600 -157 577.5 -107.5 c 128,-1,108
 555 -58 555 -58 547 -40 c 0,109,110
 541 -28 541 -28 541 -15 c 0,111,112
 541 18 541 18 541 45.5 c 128,-1,113
 541 73 541 73 541 94.5 c 128,-1,114
 541 116 541 116 541 144 c 0,115,116
 541 167 541 167 541 196 c 0,117,118
 541 206 541 206 548 214 c 0,119,120
 592 268 592 268 611 280 c 0,121,122
 627 291 627 291 649 291 c 0,123,124
 653 291 653 291 659 290.5 c 128,-1,125
 665 290 665 290 666 290 c 0,126,127
 685 289 685 289 695 278 c 0,91,92
153 -143 m 0,128,129
 157 -135 157 -135 252 -42 c 0,130,131
 260 -34 260 -34 272 -34 c 2,132,-1
 521 -34 l 2,133,134
 536 -34 536 -34 542 -47 c 0,135,136
 593 -161 593 -161 598 -172 c 0,137,138
 600 -179 600 -179 594 -185 c 0,139,140
 589 -190 589 -190 581 -191 c 0,141,142
 580 -191 580 -191 576.5 -191.5 c 128,-1,143
 573 -192 573 -192 572 -192 c 2,144,-1
 555 -193 l 1,145,-1
 226 -193 l 2,146,147
 200 -193 200 -193 179 -178 c 0,148,149
 169 -172 169 -172 164 -167 c 0,150,151
 155 -158 155 -158 153 -154.5 c 128,-1,152
 151 -151 151 -151 153 -143 c 0,128,129
114 275 m 0,153,154
 117 277 117 277 124 280 c 0,155,156
 132 283 132 283 141 283 c 0,157,158
 152 283 152 283 162 278 c 0,159,160
 171 273 171 273 204.5 254 c 128,-1,161
 238 235 238 235 249 228 c 0,162,163
 259 223 259 223 259 212 c 2,164,-1
 259 -6 l 2,165,166
 259 -22 259 -22 247 -33 c 0,167,168
 234 -46 234 -46 196 -84 c 128,-1,169
 158 -122 158 -122 152 -127 c 0,170,171
 147 -133 147 -133 139 -133 c 0,172,173
 127 -133 127 -133 121 -123 c 256,174,175
 115 -113 115 -113 115 -112 c 0,176,177
 97 -81 97 -81 97 -45 c 2,178,-1
 97 247 l 2,179,180
 97 261 97 261 107 269 c 0,181,182
 110 272 110 272 114 275 c 0,153,154
EndSplineSet
Validated: 1
EndChar

StartChar: one
Encoding: 49 49 8
Width: 800
GlyphClass: 1
Flags: W
LayerCount: 2
Fore
SplineSet
695 319 m 0,0,1
 685 308 685 308 666 307 c 2,2,3
 666 307 666 307 660 306.5 c 128,-1,4
 654 306 654 306 650 306 c 0,5,6
 627 306 627 306 611 317 c 0,7,8
 593 329 593 329 548 382 c 0,9,10
 542 390 542 390 542 401 c 0,11,12
 542 430 542 430 542 453 c 0,13,14
 542 481 542 481 542 502.5 c 128,-1,15
 542 524 542 524 542 551.5 c 128,-1,16
 542 579 542 579 542 612 c 0,17,18
 542 625 542 625 547 637 c 0,19,20
 580 710 580 710 602 758 c 0,21,22
 609 771 609 771 624 771 c 0,23,24
 632 771 632 771 638 767 c 0,25,26
 656 753 656 753 669 735 c 0,27,28
 683 716 683 716 693 694 c 0,29,30
 704 669 704 669 704 641 c 2,31,-1
 704 346 l 2,32,33
 704 339 704 339 702 332 c 0,34,35
 700 324 700 324 695 319 c 0,0,1
695 278 m 0,36,37
 700 273 700 273 702 265 c 0,38,39
 704 258 704 258 704 251 c 2,40,-1
 704 -45 l 2,41,42
 704 -72 704 -72 693 -97 c 0,43,44
 683 -119 683 -119 669 -138 c 0,45,46
 656 -156 656 -156 638 -170 c 0,47,48
 632 -175 632 -175 624 -175 c 0,49,50
 609 -175 609 -175 602 -161 c 0,51,52
 601 -157 601 -157 578 -107.5 c 128,-1,53
 555 -58 555 -58 547 -40 c 0,54,55
 542 -28 542 -28 542 -15 c 0,56,57
 542 18 542 18 542 45.5 c 128,-1,58
 542 73 542 73 542 94.5 c 128,-1,59
 542 116 542 116 542 144 c 0,60,61
 542 167 542 167 542 196 c 0,62,63
 542 206 542 206 548 214 c 0,64,65
 593 268 593 268 611 280 c 0,66,67
 627 291 627 291 650 291 c 0,68,69
 654 291 654 291 660 290.5 c 128,-1,70
 666 290 666 290 666 290 c 2,71,72
 685 289 685 289 695 278 c 0,36,37
EndSplineSet
Validated: 1
EndChar

StartChar: two
Encoding: 50 50 9
Width: 800
GlyphClass: 1
Flags: W
LayerCount: 2
Fore
SplineSet
695 319 m 0,0,1
 685 308 685 308 666 307 c 0,2,3
 665 307 665 307 659 306.5 c 128,-1,4
 653 306 653 306 649 306 c 0,5,6
 627 306 627 306 611 317 c 0,7,8
 592 329 592 329 548 382 c 0,9,10
 541 390 541 390 541 401 c 0,11,12
 541 430 541 430 541 453 c 0,13,14
 541 481 541 481 541 502.5 c 128,-1,15
 541 524 541 524 541 551.5 c 128,-1,16
 541 579 541 579 541 612 c 0,17,18
 541 625 541 625 547 637 c 0,19,20
 580 710 580 710 602 758 c 0,21,22
 608 771 608 771 623 771 c 0,23,24
 631 771 631 771 638 767 c 0,25,26
 655 753 655 753 668 735 c 0,27,28
 682 716 682 716 692 694 c 0,29,30
 703 669 703 669 703 641 c 2,31,-1
 703 346 l 2,32,33
 703 339 703 339 702 332 c 0,34,35
 700 324 700 324 695 319 c 0,0,1
267 366 m 0,36,37
 285 377 285 377 307 377 c 2,38,-1
 527 377 l 2,39,40
 534 377 534 377 540 372 c 0,41,42
 555 355 555 355 587 321 c 0,43,44
 596 311 596 311 596 298 c 0,45,46
 596 284 596 284 586 274 c 0,47,48
 561 248 561 248 542 230 c 0,49,50
 535 222 535 222 523 222 c 2,51,-1
 304 222 l 2,52,53
 285 222 285 222 269 231 c 0,54,55
 264 234 264 234 193 275 c 0,56,57
 180 282 180 282 180 298 c 0,58,59
 180 313 180 313 193 321 c 0,60,61
 200 325 200 325 227 341.5 c 128,-1,62
 254 358 254 358 267 366 c 0,36,37
153 743 m 0,63,64
 151 751 151 751 153 754.5 c 128,-1,65
 155 758 155 758 164 767 c 0,66,67
 169 772 169 772 179 778 c 0,68,69
 200 793 200 793 226 793 c 2,70,-1
 555 793 l 1,71,-1
 572 792 l 2,72,73
 573 792 573 792 576 791.5 c 128,-1,74
 579 791 579 791 581 791 c 0,75,76
 589 790 589 790 594 785 c 0,77,78
 601 779 601 779 598 771 c 0,79,80
 593 761 593 761 542 647 c 0,81,82
 536 633 536 633 521 633 c 2,83,-1
 272 633 l 2,84,85
 260 633 260 633 252 642 c 0,86,87
 157 735 157 735 153 743 c 0,63,64
153 -143 m 0,88,89
 157 -135 157 -135 252 -42 c 0,90,91
 260 -34 260 -34 272 -34 c 2,92,-1
 521 -34 l 2,93,94
 536 -34 536 -34 542 -47 c 0,95,96
 593 -161 593 -161 598 -172 c 0,97,98
 601 -179 601 -179 594 -185 c 0,99,100
 589 -190 589 -190 581 -191 c 0,101,102
 580 -191 580 -191 576.5 -191.5 c 128,-1,103
 573 -192 573 -192 572 -192 c 2,104,-1
 555 -193 l 1,105,-1
 226 -193 l 2,106,107
 200 -193 200 -193 179 -178 c 0,108,109
 169 -172 169 -172 164 -167 c 0,110,111
 155 -158 155 -158 153 -154.5 c 128,-1,112
 151 -151 151 -151 153 -143 c 0,88,89
114 275 m 0,113,114
 117 277 117 277 124 280 c 0,115,116
 132 283 132 283 141 283 c 0,117,118
 152 283 152 283 162 278 c 0,119,120
 171 273 171 273 204.5 254 c 128,-1,121
 238 235 238 235 249 228 c 0,122,123
 259 223 259 223 259 212 c 2,124,-1
 259 -6 l 2,125,126
 259 -22 259 -22 247 -33 c 0,127,128
 234 -46 234 -46 196 -84 c 128,-1,129
 158 -122 158 -122 152 -127 c 0,130,131
 147 -133 147 -133 139 -133 c 0,132,133
 127 -133 127 -133 121 -123 c 256,134,135
 115 -113 115 -113 115 -112 c 0,136,137
 97 -81 97 -81 97 -45 c 2,138,-1
 97 247 l 2,139,140
 97 261 97 261 107 269 c 0,141,142
 110 272 110 272 114 275 c 0,113,114
EndSplineSet
Validated: 1
EndChar

StartChar: three
Encoding: 51 51 10
Width: 800
GlyphClass: 1
Flags: W
LayerCount: 2
Fore
SplineSet
695 319 m 0,0,1
 685 308 685 308 666 307 c 0,2,3
 665 307 665 307 659 306.5 c 128,-1,4
 653 306 653 306 649 306 c 0,5,6
 627 306 627 306 611 317 c 0,7,8
 592 329 592 329 548 382 c 0,9,10
 541 390 541 390 541 401 c 0,11,12
 541 430 541 430 541 453 c 0,13,14
 541 481 541 481 541 502.5 c 128,-1,15
 541 524 541 524 541 551.5 c 128,-1,16
 541 579 541 579 541 612 c 0,17,18
 541 625 541 625 547 637 c 0,19,20
 580 710 580 710 602 758 c 0,21,22
 608 771 608 771 623 771 c 0,23,24
 631 771 631 771 638 767 c 0,25,26
 655 753 655 753 668 735 c 0,27,28
 682 716 682 716 692 694 c 0,29,30
 703 669 703 669 703 641 c 2,31,-1
 703 346 l 2,32,33
 703 339 703 339 702 332 c 0,34,35
 700 324 700 324 695 319 c 0,0,1
267 366 m 0,36,37
 285 377 285 377 307 377 c 2,38,-1
 527 377 l 2,39,40
 535 377 535 377 540 372 c 0,41,42
 555 355 555 355 587 321 c 0,43,44
 596 311 596 311 596 298 c 0,45,46
 596 284 596 284 586 274 c 0,47,48
 561 248 561 248 542 230 c 0,49,50
 535 222 535 222 523 222 c 2,51,-1
 304 222 l 2,52,53
 285 222 285 222 269 231 c 0,54,55
 264 234 264 234 193 275 c 0,56,57
 180 282 180 282 180 298 c 0,58,59
 180 313 180 313 193 321 c 0,60,61
 200 325 200 325 227 341.5 c 128,-1,62
 254 358 254 358 267 366 c 0,36,37
153 743 m 0,63,64
 151 751 151 751 153 754.5 c 128,-1,65
 155 758 155 758 164 767 c 0,66,67
 169 772 169 772 179 778 c 0,68,69
 200 793 200 793 226 793 c 2,70,-1
 555 793 l 1,71,-1
 572 792 l 2,72,73
 573 792 573 792 576 791.5 c 128,-1,74
 579 791 579 791 581 791 c 0,75,76
 589 790 589 790 594 785 c 0,77,78
 601 779 601 779 598 771 c 0,79,80
 593 761 593 761 542 647 c 0,81,82
 536 633 536 633 521 633 c 2,83,-1
 272 633 l 2,84,85
 260 633 260 633 252 642 c 0,86,87
 157 735 157 735 153 743 c 0,63,64
695 278 m 0,88,89
 700 273 700 273 702 265 c 0,90,91
 703 258 703 258 703 251 c 2,92,-1
 703 -45 l 2,93,94
 703 -72 703 -72 692 -97 c 0,95,96
 682 -119 682 -119 668 -138 c 0,97,98
 655 -156 655 -156 638 -170 c 0,99,100
 631 -175 631 -175 623 -175 c 0,101,102
 608 -175 608 -175 602 -161 c 0,103,104
 600 -157 600 -157 577.5 -107.5 c 128,-1,105
 555 -58 555 -58 547 -40 c 0,106,107
 541 -28 541 -28 541 -15 c 0,108,109
 541 18 541 18 541 45.5 c 128,-1,110
 541 73 541 73 541 94.5 c 128,-1,111
 541 116 541 116 541 144 c 0,112,113
 541 167 541 167 541 196 c 0,114,115
 541 206 541 206 548 214 c 0,116,117
 592 268 592 268 611 280 c 0,118,119
 627 291 627 291 649 291 c 0,120,121
 653 291 653 291 659 290.5 c 128,-1,122
 665 290 665 290 666 290 c 0,123,124
 685 289 685 289 695 278 c 0,88,89
153 -143 m 0,125,126
 157 -135 157 -135 252 -42 c 0,127,128
 260 -34 260 -34 272 -34 c 2,129,-1
 521 -34 l 2,130,131
 536 -34 536 -34 542 -47 c 0,132,133
 593 -161 593 -161 598 -172 c 0,134,135
 601 -179 601 -179 594 -185 c 0,136,137
 589 -190 589 -190 581 -191 c 0,138,139
 580 -191 580 -191 576.5 -191.5 c 128,-1,140
 573 -192 573 -192 572 -192 c 2,141,-1
 555 -193 l 1,142,-1
 226 -193 l 2,143,144
 200 -193 200 -193 179 -178 c 0,145,146
 169 -172 169 -172 164 -167 c 0,147,148
 155 -158 155 -158 153 -154.5 c 128,-1,149
 151 -151 151 -151 153 -143 c 0,125,126
EndSplineSet
Validated: 1
EndChar

StartChar: four
Encoding: 52 52 11
Width: 800
GlyphClass: 1
Flags: W
LayerCount: 2
Fore
SplineSet
695 319 m 0,0,1
 685 308 685 308 666 307 c 0,2,3
 665 307 665 307 659 306.5 c 128,-1,4
 653 306 653 306 649 306 c 0,5,6
 627 306 627 306 611 317 c 0,7,8
 592 329 592 329 548 382 c 0,9,10
 541 390 541 390 541 401 c 0,11,12
 541 430 541 430 541 453 c 0,13,14
 541 481 541 481 541 502.5 c 128,-1,15
 541 524 541 524 541 551.5 c 128,-1,16
 541 579 541 579 541 612 c 0,17,18
 541 625 541 625 547 637 c 0,19,20
 580 710 580 710 602 758 c 0,21,22
 608 771 608 771 623 771 c 0,23,24
 631 771 631 771 638 767 c 0,25,26
 655 753 655 753 668 735 c 0,27,28
 682 716 682 716 692 694 c 0,29,30
 703 669 703 669 703 641 c 2,31,-1
 703 346 l 2,32,33
 703 339 703 339 702 332 c 0,34,35
 700 324 700 324 695 319 c 0,0,1
267 366 m 0,36,37
 285 377 285 377 307 377 c 2,38,-1
 527 377 l 2,39,40
 534 377 534 377 540 372 c 0,41,42
 555 355 555 355 587 321 c 0,43,44
 596 311 596 311 596 298 c 0,45,46
 596 284 596 284 586 274 c 0,47,48
 561 248 561 248 542 230 c 0,49,50
 535 222 535 222 523 222 c 2,51,-1
 304 222 l 2,52,53
 285 222 285 222 269 231 c 0,54,55
 264 234 264 234 193 275 c 0,56,57
 180 282 180 282 180 298 c 0,58,59
 180 313 180 313 193 321 c 0,60,61
 200 325 200 325 227 341.5 c 128,-1,62
 254 358 254 358 267 366 c 0,36,37
114 325 m 256,63,64
 111 327 111 327 107 330 c 0,65,66
 97 339 97 339 97 352 c 2,67,-1
 97 645 l 2,68,69
 97 681 97 681 115 711 c 0,70,71
 115 712 115 712 121 723 c 0,72,73
 127 733 127 733 139 733 c 0,74,75
 147 733 147 733 152 727 c 0,76,77
 158 722 158 722 196 684 c 128,-1,78
 234 646 234 646 247 633 c 0,79,80
 259 621 259 621 259 605 c 2,81,-1
 259 388 l 2,82,83
 259 377 259 377 249 372 c 0,84,85
 238 365 238 365 204.5 346 c 128,-1,86
 171 327 171 327 162 322 c 0,87,88
 152 317 152 317 141 317 c 0,89,90
 132 317 132 317 124 320 c 0,91,92
 117 323 117 323 114 325 c 256,63,64
695 278 m 0,93,94
 700 273 700 273 702 265 c 0,95,96
 703 258 703 258 703 251 c 2,97,-1
 703 -45 l 2,98,99
 703 -72 703 -72 692 -97 c 0,100,101
 682 -119 682 -119 668 -138 c 0,102,103
 655 -156 655 -156 638 -170 c 0,104,105
 631 -175 631 -175 623 -175 c 0,106,107
 608 -175 608 -175 602 -161 c 0,108,109
 600 -157 600 -157 577.5 -107.5 c 128,-1,110
 555 -58 555 -58 547 -40 c 0,111,112
 541 -28 541 -28 541 -15 c 0,113,114
 541 18 541 18 541 45.5 c 128,-1,115
 541 73 541 73 541 94.5 c 128,-1,116
 541 116 541 116 541 144 c 0,117,118
 541 167 541 167 541 196 c 0,119,120
 541 206 541 206 548 214 c 0,121,122
 592 268 592 268 611 280 c 0,123,124
 627 291 627 291 649 291 c 0,125,126
 653 291 653 291 659 290.5 c 128,-1,127
 665 290 665 290 666 290 c 0,128,129
 685 289 685 289 695 278 c 0,93,94
EndSplineSet
Validated: 1
EndChar

StartChar: five
Encoding: 53 53 12
Width: 800
GlyphClass: 1
Flags: W
LayerCount: 2
Fore
SplineSet
267 366 m 0,0,1
 285 377 285 377 307 377 c 2,2,-1
 527 377 l 2,3,4
 535 377 535 377 540 372 c 0,5,6
 555 355 555 355 587 321 c 0,7,8
 596 311 596 311 596 298 c 0,9,10
 596 284 596 284 586 274 c 0,11,12
 561 248 561 248 542 230 c 0,13,14
 535 222 535 222 523 222 c 2,15,-1
 304 222 l 2,16,17
 285 222 285 222 269 231 c 0,18,19
 264 234 264 234 193 275 c 0,20,21
 180 282 180 282 180 298 c 0,22,23
 180 313 180 313 193 321 c 0,24,25
 200 325 200 325 227 341.5 c 128,-1,26
 254 358 254 358 267 366 c 0,0,1
114 325 m 256,27,28
 111 327 111 327 107 330 c 0,29,30
 97 339 97 339 97 352 c 2,31,-1
 97 645 l 2,32,33
 97 681 97 681 115 711 c 0,34,35
 115 712 115 712 121 723 c 0,36,37
 127 733 127 733 139 733 c 0,38,39
 147 733 147 733 152 727 c 0,40,41
 158 722 158 722 196 684 c 128,-1,42
 234 646 234 646 247 633 c 0,43,44
 259 621 259 621 259 605 c 2,45,-1
 259 388 l 2,46,47
 259 377 259 377 249 372 c 0,48,49
 238 365 238 365 204.5 346 c 128,-1,50
 171 327 171 327 162 322 c 0,51,52
 152 317 152 317 141 317 c 0,53,54
 132 317 132 317 124 320 c 0,55,56
 117 323 117 323 114 325 c 256,27,28
153 743 m 0,57,58
 151 751 151 751 153 754.5 c 128,-1,59
 155 758 155 758 164 767 c 0,60,61
 169 772 169 772 179 778 c 0,62,63
 200 793 200 793 226 793 c 2,64,-1
 555 793 l 1,65,-1
 572 792 l 2,66,67
 573 792 573 792 576 791.5 c 128,-1,68
 579 791 579 791 581 791 c 0,69,70
 589 790 589 790 594 785 c 0,71,72
 601 779 601 779 598 771 c 0,73,74
 593 761 593 761 542 647 c 0,75,76
 536 633 536 633 521 633 c 2,77,-1
 272 633 l 2,78,79
 260 633 260 633 252 642 c 0,80,81
 157 735 157 735 153 743 c 0,57,58
695 278 m 0,82,83
 700 273 700 273 702 265 c 0,84,85
 703 258 703 258 703 251 c 2,86,-1
 703 -45 l 2,87,88
 703 -72 703 -72 692 -97 c 0,89,90
 682 -119 682 -119 668 -138 c 0,91,92
 655 -156 655 -156 638 -170 c 0,93,94
 631 -175 631 -175 623 -175 c 0,95,96
 608 -175 608 -175 602 -161 c 0,97,98
 600 -157 600 -157 577.5 -107.5 c 128,-1,99
 555 -58 555 -58 547 -40 c 0,100,101
 541 -28 541 -28 541 -15 c 0,102,103
 541 18 541 18 541 45.5 c 128,-1,104
 541 73 541 73 541 94.5 c 128,-1,105
 541 116 541 116 541 144 c 0,106,107
 541 167 541 167 541 196 c 0,108,109
 541 206 541 206 548 214 c 0,110,111
 592 268 592 268 611 280 c 0,112,113
 627 291 627 291 649 291 c 0,114,115
 653 291 653 291 659 290.5 c 128,-1,116
 665 290 665 290 666 290 c 0,117,118
 685 289 685 289 695 278 c 0,82,83
153 -143 m 0,119,120
 157 -135 157 -135 252 -42 c 0,121,122
 260 -34 260 -34 272 -34 c 2,123,-1
 521 -34 l 2,124,125
 536 -34 536 -34 542 -47 c 0,126,127
 593 -161 593 -161 598 -172 c 0,128,129
 601 -179 601 -179 594 -185 c 0,130,131
 589 -190 589 -190 581 -191 c 0,132,133
 580 -191 580 -191 576.5 -191.5 c 128,-1,134
 573 -192 573 -192 572 -192 c 2,135,-1
 555 -193 l 1,136,-1
 226 -193 l 2,137,138
 200 -193 200 -193 179 -178 c 0,139,140
 169 -172 169 -172 164 -167 c 0,141,142
 155 -158 155 -158 153 -154.5 c 128,-1,143
 151 -151 151 -151 153 -143 c 0,119,120
EndSplineSet
Validated: 1
EndChar

StartChar: six
Encoding: 54 54 13
Width: 800
GlyphClass: 1
Flags: W
LayerCount: 2
Fore
SplineSet
267 366 m 0,0,1
 285 377 285 377 307 377 c 2,2,-1
 527 377 l 2,3,4
 535 377 535 377 540 372 c 0,5,6
 555 355 555 355 587 321 c 0,7,8
 596 311 596 311 596 298 c 0,9,10
 596 284 596 284 586 274 c 0,11,12
 561 248 561 248 542 230 c 0,13,14
 535 222 535 222 523 222 c 2,15,-1
 304 222 l 2,16,17
 285 222 285 222 269 231 c 0,18,19
 264 234 264 234 193 275 c 0,20,21
 180 282 180 282 180 298 c 0,22,23
 180 313 180 313 193 321 c 0,24,25
 200 325 200 325 227 341.5 c 128,-1,26
 254 358 254 358 267 366 c 0,0,1
114 325 m 256,27,28
 111 327 111 327 107 330 c 0,29,30
 97 339 97 339 97 352 c 2,31,-1
 97 645 l 2,32,33
 97 681 97 681 115 711 c 0,34,35
 115 712 115 712 121 723 c 0,36,37
 127 733 127 733 139 733 c 0,38,39
 147 733 147 733 152 727 c 0,40,41
 158 722 158 722 196 684 c 128,-1,42
 234 646 234 646 247 633 c 0,43,44
 259 621 259 621 259 605 c 2,45,-1
 259 388 l 2,46,47
 259 377 259 377 249 372 c 0,48,49
 238 365 238 365 204.5 346 c 128,-1,50
 171 327 171 327 162 322 c 0,51,52
 152 317 152 317 141 317 c 0,53,54
 132 317 132 317 124 320 c 0,55,56
 117 323 117 323 114 325 c 256,27,28
153 743 m 0,57,58
 151 751 151 751 153 754.5 c 128,-1,59
 155 758 155 758 164 767 c 0,60,61
 169 772 169 772 179 778 c 0,62,63
 200 793 200 793 226 793 c 2,64,-1
 555 793 l 1,65,-1
 572 792 l 2,66,67
 573 792 573 792 576 791.5 c 128,-1,68
 579 791 579 791 581 791 c 0,69,70
 589 790 589 790 594 785 c 0,71,72
 601 779 601 779 598 771 c 0,73,74
 593 761 593 761 542 647 c 0,75,76
 536 633 536 633 521 633 c 2,77,-1
 272 633 l 2,78,79
 260 633 260 633 252 642 c 0,80,81
 157 735 157 735 153 743 c 0,57,58
695 278 m 0,82,83
 700 273 700 273 702 265 c 0,84,85
 703 258 703 258 703 251 c 2,86,-1
 703 -45 l 2,87,88
 703 -72 703 -72 692 -97 c 0,89,90
 682 -119 682 -119 668 -138 c 0,91,92
 655 -156 655 -156 638 -170 c 0,93,94
 631 -175 631 -175 623 -175 c 0,95,96
 608 -175 608 -175 602 -161 c 0,97,98
 600 -157 600 -157 577.5 -107.5 c 128,-1,99
 555 -58 555 -58 547 -40 c 0,100,101
 541 -28 541 -28 541 -15 c 0,102,103
 541 18 541 18 541 45.5 c 128,-1,104
 541 73 541 73 541 94.5 c 128,-1,105
 541 116 541 116 541 144 c 0,106,107
 541 167 541 167 541 196 c 0,108,109
 541 206 541 206 548 214 c 0,110,111
 592 268 592 268 611 280 c 0,112,113
 627 291 627 291 649 291 c 0,114,115
 653 291 653 291 659 290.5 c 128,-1,116
 665 290 665 290 666 290 c 0,117,118
 685 289 685 289 695 278 c 0,82,83
153 -143 m 0,119,120
 157 -135 157 -135 252 -42 c 0,121,122
 260 -34 260 -34 272 -34 c 2,123,-1
 521 -34 l 2,124,125
 536 -34 536 -34 542 -47 c 0,126,127
 593 -161 593 -161 598 -172 c 0,128,129
 601 -179 601 -179 594 -185 c 0,130,131
 589 -190 589 -190 581 -191 c 0,132,133
 580 -191 580 -191 576.5 -191.5 c 128,-1,134
 573 -192 573 -192 572 -192 c 2,135,-1
 555 -193 l 1,136,-1
 226 -193 l 2,137,138
 200 -193 200 -193 179 -178 c 0,139,140
 169 -172 169 -172 164 -167 c 0,141,142
 155 -158 155 -158 153 -154.5 c 128,-1,143
 151 -151 151 -151 153 -143 c 0,119,120
114 275 m 0,144,145
 117 277 117 277 124 280 c 0,146,147
 132 283 132 283 141 283 c 0,148,149
 152 283 152 283 162 278 c 0,150,151
 171 273 171 273 204.5 254 c 128,-1,152
 238 235 238 235 249 228 c 0,153,154
 259 223 259 223 259 212 c 2,155,-1
 259 -6 l 2,156,157
 259 -22 259 -22 247 -33 c 0,158,159
 234 -46 234 -46 196 -84 c 128,-1,160
 158 -122 158 -122 152 -127 c 0,161,162
 147 -133 147 -133 139 -133 c 0,163,164
 127 -133 127 -133 121 -123 c 256,165,166
 115 -113 115 -113 115 -112 c 0,167,168
 97 -81 97 -81 97 -45 c 2,169,-1
 97 247 l 2,170,171
 97 261 97 261 107 269 c 0,172,173
 110 272 110 272 114 275 c 0,144,145
EndSplineSet
Validated: 1
EndChar

StartChar: seven
Encoding: 55 55 14
Width: 800
GlyphClass: 1
Flags: W
LayerCount: 2
Fore
SplineSet
695 319 m 0,0,1
 685 308 685 308 666 307 c 0,2,3
 665 307 665 307 659 306.5 c 128,-1,4
 653 306 653 306 649 306 c 0,5,6
 627 306 627 306 611 317 c 0,7,8
 592 329 592 329 548 382 c 0,9,10
 541 390 541 390 541 401 c 0,11,12
 541 430 541 430 541 453 c 0,13,14
 541 481 541 481 541 502.5 c 128,-1,15
 541 524 541 524 541 551.5 c 128,-1,16
 541 579 541 579 541 612 c 0,17,18
 541 625 541 625 547 637 c 0,19,20
 580 710 580 710 602 758 c 0,21,22
 608 771 608 771 623 771 c 0,23,24
 631 771 631 771 638 767 c 0,25,26
 655 753 655 753 668 735 c 0,27,28
 682 716 682 716 692 694 c 0,29,30
 703 669 703 669 703 641 c 2,31,-1
 703 346 l 2,32,33
 703 339 703 339 702 332 c 0,34,35
 700 324 700 324 695 319 c 0,0,1
153 743 m 0,36,37
 151 751 151 751 153 754.5 c 128,-1,38
 155 758 155 758 164 767 c 0,39,40
 169 772 169 772 179 778 c 0,41,42
 200 793 200 793 226 793 c 2,43,-1
 555 793 l 1,44,-1
 572 792 l 2,45,46
 573 792 573 792 576 791.5 c 128,-1,47
 579 791 579 791 581 791 c 0,48,49
 589 790 589 790 594 785 c 0,50,51
 601 779 601 779 598 771 c 0,52,53
 593 761 593 761 542 647 c 0,54,55
 536 633 536 633 521 633 c 2,56,-1
 272 633 l 2,57,58
 260 633 260 633 252 642 c 0,59,60
 157 735 157 735 153 743 c 0,36,37
695 278 m 0,61,62
 700 273 700 273 702 265 c 0,63,64
 703 258 703 258 703 251 c 2,65,-1
 703 -45 l 2,66,67
 703 -72 703 -72 692 -97 c 0,68,69
 682 -119 682 -119 668 -138 c 0,70,71
 655 -156 655 -156 638 -170 c 0,72,73
 631 -175 631 -175 623 -175 c 0,74,75
 608 -175 608 -175 602 -161 c 0,76,77
 600 -157 600 -157 577.5 -107.5 c 128,-1,78
 555 -58 555 -58 547 -40 c 0,79,80
 541 -28 541 -28 541 -15 c 0,81,82
 541 18 541 18 541 45.5 c 128,-1,83
 541 73 541 73 541 94.5 c 128,-1,84
 541 116 541 116 541 144 c 0,85,86
 541 167 541 167 541 196 c 0,87,88
 541 206 541 206 548 214 c 0,89,90
 592 268 592 268 611 280 c 0,91,92
 627 291 627 291 649 291 c 0,93,94
 653 291 653 291 659 290.5 c 128,-1,95
 665 290 665 290 666 290 c 0,96,97
 685 289 685 289 695 278 c 0,61,62
EndSplineSet
Validated: 1
EndChar

StartChar: eight
Encoding: 56 56 15
Width: 800
GlyphClass: 1
Flags: W
LayerCount: 2
Fore
SplineSet
695 319 m 0,0,1
 685 308 685 308 666 307 c 0,2,3
 665 307 665 307 659 306.5 c 128,-1,4
 653 306 653 306 649 306 c 0,5,6
 627 306 627 306 611 317 c 0,7,8
 592 329 592 329 548 382 c 0,9,10
 541 390 541 390 541 401 c 0,11,12
 541 430 541 430 541 453 c 0,13,14
 541 481 541 481 541 502.5 c 128,-1,15
 541 524 541 524 541 551.5 c 128,-1,16
 541 579 541 579 541 612 c 0,17,18
 541 625 541 625 547 637 c 0,19,20
 580 710 580 710 602 758 c 0,21,22
 608 771 608 771 623 771 c 0,23,24
 631 771 631 771 638 767 c 0,25,26
 655 753 655 753 668 735 c 0,27,28
 682 716 682 716 692 694 c 0,29,30
 703 669 703 669 703 641 c 2,31,-1
 703 346 l 2,32,33
 703 339 703 339 702 332 c 0,34,35
 700 324 700 324 695 319 c 0,0,1
267 366 m 0,36,37
 285 377 285 377 307 377 c 2,38,-1
 527 377 l 2,39,40
 534 377 534 377 540 372 c 0,41,42
 555 355 555 355 587 321 c 0,43,44
 596 311 596 311 596 298 c 0,45,46
 596 284 596 284 586 274 c 0,47,48
 561 248 561 248 542 230 c 0,49,50
 535 222 535 222 523 222 c 2,51,-1
 304 222 l 2,52,53
 285 222 285 222 269 231 c 0,54,55
 264 234 264 234 193 275 c 0,56,57
 180 282 180 282 180 298 c 0,58,59
 180 313 180 313 193 321 c 0,60,61
 200 325 200 325 227 341.5 c 128,-1,62
 254 358 254 358 267 366 c 0,36,37
114 325 m 256,63,64
 111 327 111 327 107 330 c 0,65,66
 97 339 97 339 97 352 c 2,67,-1
 97 645 l 2,68,69
 97 681 97 681 115 711 c 0,70,71
 115 712 115 712 121 723 c 0,72,73
 127 733 127 733 139 733 c 0,74,75
 147 733 147 733 152 727 c 0,76,77
 158 722 158 722 196 684 c 128,-1,78
 234 646 234 646 247 633 c 0,79,80
 259 621 259 621 259 605 c 2,81,-1
 259 388 l 2,82,83
 259 377 259 377 249 372 c 0,84,85
 238 365 238 365 204.5 346 c 128,-1,86
 171 327 171 327 162 322 c 0,87,88
 152 317 152 317 141 317 c 0,89,90
 132 317 132 317 124 320 c 0,91,92
 117 323 117 323 114 325 c 256,63,64
153 743 m 0,93,94
 151 751 151 751 153 754.5 c 128,-1,95
 155 758 155 758 164 767 c 0,96,97
 169 772 169 772 179 778 c 0,98,99
 200 793 200 793 226 793 c 2,100,-1
 555 793 l 1,101,-1
 572 792 l 2,102,103
 573 792 573 792 576 791.5 c 128,-1,104
 579 791 579 791 581 791 c 0,105,106
 589 790 589 790 594 785 c 0,107,108
 601 779 601 779 598 771 c 0,109,110
 593 761 593 761 542 647 c 0,111,112
 536 633 536 633 521 633 c 2,113,-1
 272 633 l 2,114,115
 260 633 260 633 252 642 c 0,116,117
 157 735 157 735 153 743 c 0,93,94
695 278 m 0,118,119
 700 273 700 273 702 265 c 0,120,121
 703 258 703 258 703 251 c 2,122,-1
 703 -45 l 2,123,124
 703 -72 703 -72 692 -97 c 0,125,126
 682 -119 682 -119 668 -138 c 0,127,128
 655 -156 655 -156 638 -170 c 0,129,130
 631 -175 631 -175 623 -175 c 0,131,132
 608 -175 608 -175 602 -161 c 0,133,134
 600 -157 600 -157 577.5 -107.5 c 128,-1,135
 555 -58 555 -58 547 -40 c 0,136,137
 541 -28 541 -28 541 -15 c 0,138,139
 541 18 541 18 541 45.5 c 128,-1,140
 541 73 541 73 541 94.5 c 128,-1,141
 541 116 541 116 541 144 c 0,142,143
 541 167 541 167 541 196 c 0,144,145
 541 206 541 206 548 214 c 0,146,147
 592 268 592 268 611 280 c 0,148,149
 627 291 627 291 649 291 c 0,150,151
 653 291 653 291 659 290.5 c 128,-1,152
 665 290 665 290 666 290 c 0,153,154
 685 289 685 289 695 278 c 0,118,119
153 -143 m 0,155,156
 157 -135 157 -135 252 -42 c 0,157,158
 260 -34 260 -34 272 -34 c 2,159,-1
 521 -34 l 2,160,161
 536 -34 536 -34 542 -47 c 0,162,163
 593 -161 593 -161 598 -172 c 0,164,165
 601 -179 601 -179 594 -185 c 0,166,167
 589 -190 589 -190 581 -191 c 0,168,169
 580 -191 580 -191 576.5 -191.5 c 128,-1,170
 573 -192 573 -192 572 -192 c 2,171,-1
 555 -193 l 1,172,-1
 226 -193 l 2,173,174
 200 -193 200 -193 179 -178 c 0,175,176
 169 -172 169 -172 164 -167 c 0,177,178
 155 -158 155 -158 153 -154.5 c 128,-1,179
 151 -151 151 -151 153 -143 c 0,155,156
114 275 m 0,180,181
 117 277 117 277 124 280 c 0,182,183
 132 283 132 283 141 283 c 0,184,185
 152 283 152 283 162 278 c 0,186,187
 171 273 171 273 204.5 254 c 128,-1,188
 238 235 238 235 249 228 c 0,189,190
 259 223 259 223 259 212 c 2,191,-1
 259 -6 l 2,192,193
 259 -22 259 -22 247 -33 c 0,194,195
 234 -46 234 -46 196 -84 c 128,-1,196
 158 -122 158 -122 152 -127 c 0,197,198
 147 -133 147 -133 139 -133 c 0,199,200
 127 -133 127 -133 121 -123 c 256,201,202
 115 -113 115 -113 115 -112 c 0,203,204
 97 -81 97 -81 97 -45 c 2,205,-1
 97 247 l 2,206,207
 97 261 97 261 107 269 c 0,208,209
 110 272 110 272 114 275 c 0,180,181
EndSplineSet
Validated: 1
EndChar

StartChar: nine
Encoding: 57 57 16
Width: 800
GlyphClass: 1
Flags: W
LayerCount: 2
Fore
SplineSet
695 319 m 0,0,1
 685 308 685 308 666 307 c 0,2,3
 665 307 665 307 659 306.5 c 128,-1,4
 653 306 653 306 649 306 c 0,5,6
 627 306 627 306 611 317 c 0,7,8
 592 329 592 329 548 382 c 0,9,10
 541 390 541 390 541 401 c 0,11,12
 541 430 541 430 541 453 c 0,13,14
 541 481 541 481 541 502.5 c 128,-1,15
 541 524 541 524 541 551.5 c 128,-1,16
 541 579 541 579 541 612 c 0,17,18
 541 625 541 625 547 637 c 0,19,20
 580 710 580 710 602 758 c 0,21,22
 608 771 608 771 623 771 c 0,23,24
 631 771 631 771 638 767 c 0,25,26
 655 753 655 753 668 735 c 0,27,28
 682 716 682 716 692 694 c 0,29,30
 703 669 703 669 703 641 c 2,31,-1
 703 346 l 2,32,33
 703 339 703 339 702 332 c 0,34,35
 700 324 700 324 695 319 c 0,0,1
267 366 m 0,36,37
 285 377 285 377 307 377 c 2,38,-1
 527 377 l 2,39,40
 534 377 534 377 540 372 c 0,41,42
 555 355 555 355 587 321 c 0,43,44
 596 311 596 311 596 298 c 0,45,46
 596 284 596 284 586 274 c 0,47,48
 561 248 561 248 542 230 c 0,49,50
 535 222 535 222 523 222 c 2,51,-1
 304 222 l 2,52,53
 285 222 285 222 269 231 c 0,54,55
 264 234 264 234 193 275 c 0,56,57
 180 282 180 282 180 298 c 0,58,59
 180 313 180 313 193 321 c 0,60,61
 200 325 200 325 227 341.5 c 128,-1,62
 254 358 254 358 267 366 c 0,36,37
114 325 m 256,63,64
 111 327 111 327 107 330 c 0,65,66
 97 339 97 339 97 352 c 2,67,-1
 97 645 l 2,68,69
 97 681 97 681 115 711 c 0,70,71
 115 712 115 712 121 723 c 0,72,73
 127 733 127 733 139 733 c 0,74,75
 147 733 147 733 152 727 c 0,76,77
 158 722 158 722 196 684 c 128,-1,78
 234 646 234 646 247 633 c 0,79,80
 259 621 259 621 259 605 c 2,81,-1
 259 388 l 2,82,83
 259 377 259 377 249 372 c 0,84,85
 238 365 238 365 204.5 346 c 128,-1,86
 171 327 171 327 162 322 c 0,87,88
 152 317 152 317 141 317 c 0,89,90
 132 317 132 317 124 320 c 0,91,92
 117 323 117 323 114 325 c 256,63,64
153 743 m 0,93,94
 151 751 151 751 153 754.5 c 128,-1,95
 155 758 155 758 164 767 c 0,96,97
 169 772 169 772 179 778 c 0,98,99
 200 793 200 793 226 793 c 2,100,-1
 555 793 l 1,101,-1
 572 792 l 2,102,103
 573 792 573 792 576 791.5 c 128,-1,104
 579 791 579 791 581 791 c 0,105,106
 589 790 589 790 594 785 c 0,107,108
 601 779 601 779 598 771 c 0,109,110
 593 761 593 761 542 647 c 0,111,112
 536 633 536 633 521 633 c 2,113,-1
 272 633 l 2,114,115
 260 633 260 633 252 642 c 0,116,117
 157 735 157 735 153 743 c 0,93,94
695 278 m 0,118,119
 700 273 700 273 702 265 c 0,120,121
 703 258 703 258 703 251 c 2,122,-1
 703 -45 l 2,123,124
 703 -72 703 -72 692 -97 c 0,125,126
 682 -119 682 -119 668 -138 c 0,127,128
 655 -156 655 -156 638 -170 c 0,129,130
 631 -175 631 -175 623 -175 c 0,131,132
 608 -175 608 -175 602 -161 c 0,133,134
 600 -157 600 -157 577.5 -107.5 c 128,-1,135
 555 -58 555 -58 547 -40 c 0,136,137
 541 -28 541 -28 541 -15 c 0,138,139
 541 18 541 18 541 45.5 c 128,-1,140
 541 73 541 73 541 94.5 c 128,-1,141
 541 116 541 116 541 144 c 0,142,143
 541 167 541 167 541 196 c 0,144,145
 541 206 541 206 548 214 c 0,146,147
 592 268 592 268 611 280 c 0,148,149
 627 291 627 291 649 291 c 0,150,151
 653 291 653 291 659 290.5 c 128,-1,152
 665 290 665 290 666 290 c 0,153,154
 685 289 685 289 695 278 c 0,118,119
153 -143 m 0,155,156
 157 -135 157 -135 252 -42 c 0,157,158
 260 -34 260 -34 272 -34 c 2,159,-1
 521 -34 l 2,160,161
 536 -34 536 -34 542 -47 c 0,162,163
 593 -161 593 -161 598 -172 c 0,164,165
 601 -179 601 -179 594 -185 c 0,166,167
 589 -190 589 -190 581 -191 c 0,168,169
 580 -191 580 -191 576.5 -191.5 c 128,-1,170
 573 -192 573 -192 572 -192 c 2,171,-1
 555 -193 l 1,172,-1
 226 -193 l 2,173,174
 200 -193 200 -193 179 -178 c 0,175,176
 169 -172 169 -172 164 -167 c 0,177,178
 155 -158 155 -158 153 -154.5 c 128,-1,179
 151 -151 151 -151 153 -143 c 0,155,156
EndSplineSet
Validated: 1
EndChar

StartChar: A
Encoding: 65 65 17
Width: 800
GlyphClass: 1
Flags: W
LayerCount: 2
Fore
SplineSet
354 786 m 0,0,1
 367 786 367 786 385 786 c 0,2,3
 390 786 390 786 401.5 786 c 128,-1,4
 413 786 413 786 419 786 c 0,5,6
 430 786 430 786 438 786 c 1,7,8
 451 750 451 750 475 685.5 c 128,-1,9
 499 621 499 621 507 598 c 0,10,11
 539 511 539 511 639 237.5 c 128,-1,12
 739 -36 739 -36 794 -186 c 1,13,14
 782 -186 782 -186 759 -186 c 128,-1,15
 736 -186 736 -186 724 -186 c 2,16,-1
 654 -186 l 1,17,18
 641 -149 641 -149 614.5 -77 c 128,-1,19
 588 -5 588 -5 575 31 c 1,20,21
 488 31 488 31 400 31 c 128,-1,22
 312 31 312 31 225 31 c 1,23,24
 213 -1 213 -1 186.5 -74 c 128,-1,25
 160 -147 160 -147 146 -186 c 1,26,27
 84 -186 84 -186 64 -186 c 0,28,29
 27 -186 27 -186 -1 -186 c 1,30,31
 63 -10 63 -10 181.5 314.5 c 128,-1,32
 300 639 300 639 350 774 c 0,33,34
 350 775 350 775 351.5 779 c 128,-1,35
 353 783 353 783 354 786 c 0,0,1
400 480 m 1,36,37
 400 479 400 479 397 473 c 0,38,39
 383 433 383 433 346.5 333 c 128,-1,40
 310 233 310 233 290 178 c 1,41,42
 345 178 345 178 400 178 c 128,-1,43
 455 178 455 178 510 178 c 1,44,45
 498 213 498 213 475.5 273.5 c 128,-1,46
 453 334 453 334 434.5 384.5 c 128,-1,47
 416 435 416 435 400 480 c 1,36,37
EndSplineSet
Validated: 1
EndChar

StartChar: C
Encoding: 67 67 18
Width: 800
GlyphClass: 1
Flags: W
LayerCount: 2
Fore
SplineSet
390 786 m 0,0,1
 399 786 399 786 410 786 c 0,2,3
 413 786 413 786 419 786 c 128,-1,4
 425 786 425 786 428 786 c 0,5,6
 433 786 433 786 435 786 c 0,7,8
 471 786 471 786 505 779 c 0,9,10
 593 763 593 763 665 709 c 0,11,12
 740 652 740 652 780 567 c 1,13,14
 758 558 758 558 715.5 540.5 c 128,-1,15
 673 523 673 523 655 515 c 0,16,17
 651 514 651 514 649 513 c 0,18,19
 610 585 610 585 535 621 c 0,20,21
 484 645 484 645 428 645 c 0,22,23
 426 645 426 645 424.5 645 c 128,-1,24
 423 645 423 645 421 645 c 0,25,26
 342 645 342 645 278 599 c 0,27,28
 224 562 224 562 196 504 c 0,29,30
 172 455 172 455 171 400 c 2,31,-1
 171 200 l 2,32,33
 172 138 172 138 203 83 c 0,34,35
 239 19 239 19 304 -16 c 0,36,37
 356 -43 356 -43 415 -45 c 0,38,39
 423 -45 423 -45 425 -45 c 0,40,41
 442 -45 442 -45 454 -43 c 0,42,43
 515 -37 515 -37 567 -3 c 0,44,45
 619 32 619 32 649 87 c 0,46,47
 650 87 650 87 652 86 c 0,48,49
 672 78 672 78 715 60 c 128,-1,50
 758 42 758 42 780 33 c 1,51,52
 761 -8 761 -8 733 -43 c 0,53,54
 676 -114 676 -114 592 -152 c 0,55,56
 518 -186 518 -186 436 -186 c 0,57,58
 434 -186 434 -186 433 -186 c 0,59,60
 429 -186 429 -186 425 -186 c 256,61,62
 421 -186 421 -186 413.5 -186 c 128,-1,63
 406 -186 406 -186 402 -186 c 0,64,65
 375 -186 375 -186 357 -184 c 0,66,67
 260 -175 260 -175 179 -120 c 0,68,69
 100 -66 100 -66 56 19 c 0,70,71
 17 93 17 93 13 177 c 0,72,73
 13 186 13 186 13 200 c 0,74,75
 13 202 13 202 13 204.5 c 128,-1,76
 13 207 13 207 13 209 c 2,77,-1
 13 210 l 2,78,79
 13 232 13 232 13 275 c 128,-1,80
 13 318 13 318 13 339 c 0,81,82
 13 377 13 377 13 404 c 0,83,84
 13 443 13 443 20 480 c 0,85,86
 37 565 37 565 90 635 c 0,87,88
 150 714 150 714 242 754 c 0,89,90
 312 785 312 785 390 786 c 0,0,1
EndSplineSet
Validated: 1
EndChar

StartChar: D
Encoding: 68 68 19
Width: 800
GlyphClass: 1
Flags: W
LayerCount: 2
Fore
SplineSet
83 786 m 1,0,1
 126 786 126 786 185 786 c 2,2,-1
 369 786 l 2,3,4
 407 785 407 785 444 777 c 0,5,6
 531 759 531 759 600 704 c 0,7,8
 676 644 676 644 714 556 c 0,9,10
 745 484 745 484 745 405 c 0,11,12
 745 375 745 375 745 336 c 0,13,14
 745 313 745 313 745 266.5 c 128,-1,15
 745 220 745 220 745 196 c 0,16,17
 745 153 745 153 736 113 c 0,18,19
 718 30 718 30 665 -38 c 0,20,21
 607 -112 607 -112 522 -151 c 0,22,23
 449 -185 449 -185 368 -186 c 0,24,25
 353 -186 353 -186 324 -186 c 0,26,27
 300 -186 300 -186 253.5 -186 c 128,-1,28
 207 -186 207 -186 184 -186 c 0,29,30
 126 -186 126 -186 83 -186 c 1,31,-1
 83 786 l 1,0,1
224 645 m 1,32,-1
 224 -45 l 1,33,34
 236 -45 236 -45 259 -45 c 128,-1,35
 282 -45 282 -45 293 -45 c 2,36,-1
 362 -45 l 2,37,38
 417 -43 417 -43 467 -19 c 0,39,40
 527 11 527 11 565 67 c 0,41,42
 607 130 607 130 607 206 c 2,43,-1
 607 393 l 2,44,45
 607 394 607 394 607 394 c 2,46,47
 607 450 607 450 583 500 c 0,48,49
 557 558 557 558 505 596 c 0,50,51
 440 644 440 644 359 645 c 0,52,53
 332 645 332 645 292 645 c 2,54,-1
 224 645 l 1,32,-1
EndSplineSet
Validated: 1
EndChar

StartChar: G
Encoding: 71 71 20
Width: 850
GlyphClass: 1
Flags: W
LayerCount: 2
Fore
SplineSet
400 786 m 2,0,-1
 451 786 l 2,1,2
 485 785 485 785 517 779 c 0,3,4
 604 763 604 763 674 710 c 0,5,6
 750 653 750 653 791 567 c 1,7,8
 765 557 765 557 659 513 c 1,9,10
 620 585 620 585 546 620 c 0,11,12
 498 644 498 644 444 645 c 0,13,14
 440 645 440 645 434 645 c 128,-1,15
 428 645 428 645 425 645 c 0,16,17
 393 644 393 644 363 635 c 0,18,19
 307 619 307 619 264 581 c 0,20,21
 220 541 220 541 199 486 c 0,22,23
 181 442 181 442 181 395 c 0,24,25
 181 393 181 393 181 391 c 0,26,27
 181 381 181 381 181 361 c 0,28,29
 181 346 181 346 181 315 c 128,-1,30
 181 284 181 284 181 269 c 0,31,32
 181 233 181 233 181 201 c 0,33,34
 182 130 182 130 221 71 c 0,35,36
 258 13 258 13 318 -18 c 0,37,38
 369 -43 369 -43 426 -45 c 0,39,40
 442 -45 442 -45 442 -45 c 2,41,42
 524 -44 524 -44 590 7 c 0,43,44
 642 46 642 46 668 105 c 0,45,46
 688 150 688 150 689 200 c 0,47,48
 689 209 689 209 689 220 c 0,49,50
 689 224 689 224 689 231 c 128,-1,51
 689 238 689 238 689 242 c 256,52,53
 689 246 689 246 689 254 c 1,54,55
 663 254 663 254 638 254 c 2,56,-1
 448 254 l 1,57,58
 448 279 448 279 448 328.5 c 128,-1,59
 448 378 448 378 448 402 c 1,60,61
 505 402 505 402 583 402 c 0,62,63
 614 402 614 402 675.5 402 c 128,-1,64
 737 402 737 402 768 402 c 0,65,66
 807 402 807 402 827 402 c 1,67,68
 827 370 827 370 827 329 c 0,69,70
 827 313 827 313 827 282 c 128,-1,71
 827 251 827 251 827 236 c 0,72,73
 827 211 827 211 827 198 c 0,74,75
 827 197 827 197 827 195 c 0,76,77
 827 159 827 159 820 123 c 0,78,79
 804 37 804 37 750 -34 c 0,80,81
 693 -111 693 -111 606 -151 c 0,82,83
 532 -185 532 -185 449 -186 c 0,84,85
 447 -186 447 -186 441 -186 c 0,86,87
 437 -186 437 -186 428.5 -186 c 128,-1,88
 420 -186 420 -186 416 -186 c 0,89,90
 405 -186 405 -186 398 -186 c 0,91,92
 367 -185 367 -185 338 -180 c 0,93,94
 250 -165 250 -165 178 -112 c 0,95,96
 103 -56 103 -56 61 28 c 0,97,98
 24 105 24 105 23 192 c 0,99,100
 23 210 23 210 23 246.5 c 128,-1,101
 23 283 23 283 23 301 c 0,102,103
 23 367 23 367 23 410 c 0,104,105
 23 449 23 449 31 486 c 0,106,107
 51 576 51 576 111 648 c 256,108,109
 171 720 171 720 257 756 c 0,110,111
 325 785 325 785 400 786 c 2,0,-1
EndSplineSet
Validated: 1
EndChar

StartChar: H
Encoding: 72 72 21
Width: 800
GlyphClass: 1
Flags: W
LayerCount: 2
Fore
SplineSet
52 786 m 1,0,1
 63 786 63 786 86.5 786 c 128,-1,2
 110 786 110 786 122 786 c 0,3,4
 164 786 164 786 193 786 c 1,5,6
 193 728 193 728 193 646 c 0,7,8
 193 624 193 624 193 580.5 c 128,-1,9
 193 537 193 537 193 515 c 0,10,11
 193 489 193 489 193 463 c 1,12,13
 296 463 296 463 400 463 c 2,14,-1
 607 463 l 1,15,16
 607 489 607 489 607 515 c 0,17,18
 607 537 607 537 607 580.5 c 128,-1,19
 607 624 607 624 607 646 c 0,20,21
 607 729 607 729 607 786 c 1,22,23
 654 786 654 786 748 786 c 1,24,25
 748 543 748 543 748 300 c 128,-1,26
 748 57 748 57 748 -186 c 1,27,28
 737 -186 737 -186 713.5 -186 c 128,-1,29
 690 -186 690 -186 678 -186 c 0,30,31
 636 -186 636 -186 607 -186 c 1,32,33
 607 -94 607 -94 607 40 c 0,34,35
 607 76 607 76 607 146.5 c 128,-1,36
 607 217 607 217 607 252 c 0,37,38
 607 294 607 294 607 336 c 1,39,40
 504 336 504 336 400 336 c 2,41,-1
 193 336 l 1,42,43
 193 294 193 294 193 252 c 0,44,45
 193 217 193 217 193 146.5 c 128,-1,46
 193 76 193 76 193 40 c 0,47,48
 193 -93 193 -93 193 -186 c 1,49,50
 146 -186 146 -186 52 -186 c 1,51,52
 52 57 52 57 52 300 c 128,-1,53
 52 543 52 543 52 786 c 1,0,1
EndSplineSet
Validated: 1
EndChar

StartChar: K
Encoding: 75 75 22
Width: 800
GlyphClass: 1
Flags: W
LayerCount: 2
Fore
SplineSet
99 786 m 1,0,-1
 241 786 l 1,1,2
 241 706 241 706 241 607 c 0,3,4
 241 567 241 567 241 487.5 c 128,-1,5
 241 408 241 408 241 368 c 1,6,7
 295 424 295 424 647 786 c 1,8,9
 717 717 717 717 748 687 c 1,10,11
 704 642 704 642 603.5 538.5 c 128,-1,12
 503 435 503 435 449 380 c 1,13,14
 502 293 502 293 602 128 c 128,-1,15
 702 -37 702 -37 748 -112 c 1,16,17
 730 -123 730 -123 710 -135.5 c 128,-1,18
 690 -148 690 -148 666 -162.5 c 128,-1,19
 642 -177 642 -177 628 -186 c 1,20,21
 578 -103 578 -103 483.5 51.5 c 128,-1,22
 389 206 389 206 347 275 c 1,23,24
 327 255 327 255 290.5 217.5 c 128,-1,25
 254 180 254 180 241 166 c 1,26,27
 241 119 241 119 241 62 c 0,28,29
 241 38 241 38 241 -10 c 128,-1,30
 241 -58 241 -58 241 -82 c 0,31,32
 241 -139 241 -139 241 -186 c 1,33,-1
 99 -186 l 1,34,35
 99 57 99 57 99 300 c 128,-1,36
 99 543 99 543 99 786 c 1,0,-1
EndSplineSet
Validated: 1
EndChar

StartChar: L
Encoding: 76 76 23
Width: 800
GlyphClass: 1
Flags: W
LayerCount: 2
Fore
SplineSet
138 786 m 1,0,1
 157 786 157 786 182 786 c 0,2,3
 191 786 191 786 208.5 786 c 128,-1,4
 226 786 226 786 235 786 c 0,5,6
 259 786 259 786 279 786 c 1,7,8
 279 651 279 651 279 381.5 c 128,-1,9
 279 112 279 112 279 -23 c 1,10,11
 299 -23 299 -23 338 -23 c 0,12,13
 370 -23 370 -23 432.5 -23 c 128,-1,14
 495 -23 495 -23 526 -23 c 0,15,16
 604 -23 604 -23 662 -23 c 1,17,18
 662 -41 662 -41 662 -77 c 128,-1,19
 662 -113 662 -113 662 -131 c 0,20,21
 662 -163 662 -163 662 -186 c 1,22,23
 531 -186 531 -186 400 -186 c 2,24,-1
 138 -186 l 1,25,26
 138 57 138 57 138 300 c 128,-1,27
 138 543 138 543 138 786 c 1,0,1
EndSplineSet
Validated: 1
EndChar

StartChar: M
Encoding: 77 77 24
Width: 800
GlyphClass: 1
Flags: W
LayerCount: 2
Fore
SplineSet
-30 786 m 1,0,1
 -7 786 -7 786 17 786 c 2,2,-1
 111 786 l 1,3,4
 153 703 153 703 250.5 511.5 c 128,-1,5
 348 320 348 320 400 217 c 1,6,7
 452 320 452 320 549.5 511.5 c 128,-1,8
 647 703 647 703 689 786 c 1,9,10
 705 786 705 786 736.5 786 c 128,-1,11
 768 786 768 786 783 786 c 2,12,-1
 830 786 l 1,13,-1
 830 -186 l 1,14,15
 823 -186 823 -186 808 -186 c 0,16,17
 798 -186 798 -186 779 -186 c 128,-1,18
 760 -186 760 -186 750 -186 c 0,19,20
 716 -186 716 -186 689 -186 c 1,21,22
 689 -103 689 -103 689 0 c 0,23,24
 689 38 689 38 689 113.5 c 128,-1,25
 689 189 689 189 689 226 c 0,26,27
 689 330 689 330 689 412 c 1,28,29
 647 331 647 331 570 182.5 c 128,-1,30
 493 34 493 34 465 -21 c 1,31,32
 438 -21 438 -21 406 -21 c 0,33,34
 376 -21 376 -21 335 -21 c 1,35,36
 304 39 304 39 228 186 c 128,-1,37
 152 333 152 333 111 412 c 1,38,39
 111 273 111 273 111 143 c 0,40,41
 111 -31 111 -31 111 -186 c 1,42,43
 82 -186 82 -186 40 -186 c 0,44,45
 28 -186 28 -186 4.5 -186 c 128,-1,46
 -19 -186 -19 -186 -30 -186 c 1,47,-1
 -30 786 l 1,0,1
EndSplineSet
Validated: 1
EndChar

StartChar: P
Encoding: 80 80 25
Width: 800
GlyphClass: 1
Flags: W
LayerCount: 2
Fore
SplineSet
63 786 m 1,0,-1
 461 786 l 2,1,2
 462 786 462 786 463 786 c 0,3,4
 524 786 524 786 579 760 c 0,5,6
 641 731 641 731 682 675 c 0,7,8
 722 622 722 622 733 558 c 0,9,10
 737 535 737 535 737 511 c 0,11,12
 737 483 737 483 731 455 c 0,13,14
 719 396 719 396 683 347 c 0,15,16
 638 287 638 287 568 258 c 0,17,18
 518 236 518 236 463 236 c 0,19,20
 461 236 461 236 460 236 c 0,21,22
 431 236 431 236 402 236 c 0,23,24
 385 236 385 236 350.5 236 c 128,-1,25
 316 236 316 236 299 236 c 0,26,27
 245 236 245 236 204 236 c 1,28,29
 204 219 204 219 204 186 c 0,30,31
 204 152 204 152 204 85.5 c 128,-1,32
 204 19 204 19 204 -14 c 0,33,34
 204 -114 204 -114 204 -186 c 1,35,-1
 63 -186 l 1,36,37
 63 57 63 57 63 300 c 128,-1,38
 63 543 63 543 63 786 c 1,0,-1
204 615 m 1,39,-1
 204 406 l 1,40,41
 256 406 256 406 334 406 c 0,42,43
 356 406 356 406 399.5 406 c 128,-1,44
 443 406 443 406 465 406 c 0,45,46
 466 406 466 406 467 406 c 0,47,48
 495 406 495 406 520 421 c 0,49,50
 548 438 548 438 561 468 c 0,51,52
 570 488 570 488 570 511 c 0,53,54
 570 535 570 535 560 556 c 0,55,56
 545 587 545 587 515 603 c 0,57,58
 492 615 492 615 466 615 c 0,59,60
 465 615 465 615 465 615 c 1,61,-1
 204 615 l 1,39,-1
EndSplineSet
Validated: 1
EndChar

StartChar: S
Encoding: 83 83 26
Width: 800
GlyphClass: 1
Flags: W
LayerCount: 2
Fore
SplineSet
267 366 m 0,0,1
 285 377 285 377 307 377 c 2,2,-1
 527 377 l 2,3,4
 535 377 535 377 540 372 c 0,5,6
 555 355 555 355 587 321 c 0,7,8
 596 311 596 311 596 298 c 0,9,10
 596 284 596 284 586 274 c 0,11,12
 561 248 561 248 542 230 c 0,13,14
 535 222 535 222 523 222 c 2,15,-1
 304 222 l 2,16,17
 285 222 285 222 269 231 c 0,18,19
 264 234 264 234 193 275 c 0,20,21
 180 282 180 282 180 298 c 0,22,23
 180 313 180 313 193 321 c 0,24,25
 200 325 200 325 227 341.5 c 128,-1,26
 254 358 254 358 267 366 c 0,0,1
114 325 m 256,27,28
 111 327 111 327 107 330 c 0,29,30
 97 339 97 339 97 352 c 2,31,-1
 97 645 l 2,32,33
 97 681 97 681 115 711 c 0,34,35
 115 712 115 712 121 723 c 0,36,37
 127 733 127 733 139 733 c 0,38,39
 147 733 147 733 152 727 c 0,40,41
 158 722 158 722 196 684 c 128,-1,42
 234 646 234 646 247 633 c 0,43,44
 259 621 259 621 259 605 c 2,45,-1
 259 388 l 2,46,47
 259 377 259 377 249 372 c 0,48,49
 238 365 238 365 204.5 346 c 128,-1,50
 171 327 171 327 162 322 c 0,51,52
 152 317 152 317 141 317 c 0,53,54
 132 317 132 317 124 320 c 0,55,56
 117 323 117 323 114 325 c 256,27,28
153 743 m 0,57,58
 151 751 151 751 153 754.5 c 128,-1,59
 155 758 155 758 164 767 c 0,60,61
 169 772 169 772 179 778 c 0,62,63
 200 793 200 793 226 793 c 2,64,-1
 555 793 l 1,65,-1
 572 792 l 2,66,67
 573 792 573 792 576 791.5 c 128,-1,68
 579 791 579 791 581 791 c 0,69,70
 589 790 589 790 594 785 c 0,71,72
 601 779 601 779 598 771 c 0,73,74
 593 761 593 761 542 647 c 0,75,76
 536 633 536 633 521 633 c 2,77,-1
 272 633 l 2,78,79
 260 633 260 633 252 642 c 0,80,81
 157 735 157 735 153 743 c 0,57,58
695 278 m 0,82,83
 700 273 700 273 702 265 c 0,84,85
 703 258 703 258 703 251 c 2,86,-1
 703 -45 l 2,87,88
 703 -72 703 -72 692 -97 c 0,89,90
 682 -119 682 -119 668 -138 c 0,91,92
 655 -156 655 -156 638 -170 c 0,93,94
 631 -175 631 -175 623 -175 c 0,95,96
 608 -175 608 -175 602 -161 c 0,97,98
 600 -157 600 -157 577.5 -107.5 c 128,-1,99
 555 -58 555 -58 547 -40 c 0,100,101
 541 -28 541 -28 541 -15 c 0,102,103
 541 18 541 18 541 45.5 c 128,-1,104
 541 73 541 73 541 94.5 c 128,-1,105
 541 116 541 116 541 144 c 0,106,107
 541 167 541 167 541 196 c 0,108,109
 541 206 541 206 548 214 c 0,110,111
 592 268 592 268 611 280 c 0,112,113
 627 291 627 291 649 291 c 0,114,115
 653 291 653 291 659 290.5 c 128,-1,116
 665 290 665 290 666 290 c 0,117,118
 685 289 685 289 695 278 c 0,82,83
153 -143 m 0,119,120
 157 -135 157 -135 252 -42 c 0,121,122
 260 -34 260 -34 272 -34 c 2,123,-1
 521 -34 l 2,124,125
 536 -34 536 -34 542 -47 c 0,126,127
 593 -161 593 -161 598 -172 c 0,128,129
 601 -179 601 -179 594 -185 c 0,130,131
 589 -190 589 -190 581 -191 c 0,132,133
 580 -191 580 -191 576.5 -191.5 c 128,-1,134
 573 -192 573 -192 572 -192 c 2,135,-1
 555 -193 l 1,136,-1
 226 -193 l 2,137,138
 200 -193 200 -193 179 -178 c 0,139,140
 169 -172 169 -172 164 -167 c 0,141,142
 155 -158 155 -158 153 -154.5 c 128,-1,143
 151 -151 151 -151 153 -143 c 0,119,120
EndSplineSet
Validated: 1
EndChar

StartChar: T
Encoding: 84 84 27
Width: 800
GlyphClass: 1
Flags: W
LayerCount: 2
Fore
SplineSet
75 786 m 1,0,-1
 725 786 l 1,1,-1
 725 628 l 1,2,3
 713 628 713 628 471 628 c 1,4,-1
 471 -186 l 1,5,-1
 329 -186 l 1,6,-1
 329 628 l 1,7,8
 267 628 267 628 205 628 c 0,9,10
 140 628 140 628 75 628 c 1,11,-1
 75 786 l 1,0,-1
EndSplineSet
Validated: 1
EndChar

StartChar: V
Encoding: 86 86 28
Width: 800
GlyphClass: 1
Flags: W
LayerCount: 2
Fore
SplineSet
43 786 m 1,0,1
 64 786 64 786 94 786 c 0,2,3
 103 786 103 786 120 786 c 128,-1,4
 137 786 137 786 146 786 c 0,5,6
 172 786 172 786 191 786 c 1,7,8
 230 652 230 652 301.5 406 c 128,-1,9
 373 160 373 160 400 68 c 1,10,11
 525 498 525 498 609 786 c 1,12,13
 616 786 616 786 757 786 c 1,14,15
 709 624 709 624 615 300 c 128,-1,16
 521 -24 521 -24 474 -186 c 1,17,18
 447 -186 447 -186 419 -186 c 0,19,20
 383 -186 383 -186 326 -186 c 1,21,22
 203 236 203 236 43 786 c 1,0,1
EndSplineSet
Validated: 1
EndChar

StartChar: o
Encoding: 111 111 29
Width: 800
GlyphClass: 1
Flags: W
LayerCount: 2
Fore
SplineSet
270 366 m 0,0,1
 288 377 288 377 310 377 c 2,2,-1
 530 377 l 2,3,4
 538 377 538 377 543 372 c 0,5,6
 558 355 558 355 590 321 c 0,7,8
 599 311 599 311 599 298 c 0,9,10
 599 284 599 284 589 274 c 0,11,12
 564 248 564 248 545 230 c 0,13,14
 538 222 538 222 526 222 c 2,15,-1
 307 222 l 2,16,17
 288 222 288 222 272 231 c 0,18,19
 267 234 267 234 196 275 c 0,20,21
 183 282 183 282 183 298 c 0,22,23
 183 313 183 313 196 321 c 0,24,25
 203 325 203 325 230 341.5 c 128,-1,26
 257 358 257 358 270 366 c 0,0,1
698 278 m 0,27,28
 703 273 703 273 705 265 c 0,29,30
 706 258 706 258 706 251 c 2,31,-1
 706 -45 l 2,32,33
 706 -72 706 -72 695 -97 c 0,34,35
 685 -119 685 -119 671 -138 c 0,36,37
 658 -156 658 -156 641 -170 c 0,38,39
 634 -175 634 -175 626 -175 c 0,40,41
 611 -175 611 -175 605 -161 c 0,42,43
 603 -157 603 -157 580.5 -107.5 c 128,-1,44
 558 -58 558 -58 550 -40 c 0,45,46
 544 -28 544 -28 544 -15 c 0,47,48
 544 18 544 18 544 45.5 c 128,-1,49
 544 73 544 73 544 94.5 c 128,-1,50
 544 116 544 116 544 144 c 0,51,52
 544 167 544 167 544 196 c 0,53,54
 544 206 544 206 551 214 c 0,55,56
 595 268 595 268 614 280 c 0,57,58
 630 291 630 291 652 291 c 0,59,60
 656 291 656 291 662 290.5 c 128,-1,61
 668 290 668 290 669 290 c 0,62,63
 688 289 688 289 698 278 c 0,27,28
156 -143 m 0,64,65
 160 -135 160 -135 255 -42 c 0,66,67
 263 -34 263 -34 275 -34 c 2,68,-1
 524 -34 l 2,69,70
 539 -34 539 -34 545 -47 c 0,71,72
 596 -161 596 -161 601 -172 c 0,73,74
 604 -179 604 -179 597 -185 c 0,75,76
 592 -190 592 -190 584 -191 c 0,77,78
 583 -191 583 -191 579.5 -191.5 c 128,-1,79
 576 -192 576 -192 575 -192 c 2,80,-1
 558 -193 l 1,81,-1
 229 -193 l 2,82,83
 203 -193 203 -193 182 -178 c 0,84,85
 172 -172 172 -172 167 -167 c 0,86,87
 158 -158 158 -158 156 -154.5 c 128,-1,88
 154 -151 154 -151 156 -143 c 0,64,65
117 275 m 0,89,90
 120 277 120 277 127 280 c 0,91,92
 135 283 135 283 144 283 c 0,93,94
 155 283 155 283 165 278 c 0,95,96
 174 273 174 273 207.5 254 c 128,-1,97
 241 235 241 235 252 228 c 0,98,99
 262 223 262 223 262 212 c 2,100,-1
 262 -6 l 2,101,102
 262 -22 262 -22 250 -33 c 0,103,104
 237 -46 237 -46 199 -84 c 128,-1,105
 161 -122 161 -122 155 -127 c 0,106,107
 150 -133 150 -133 142 -133 c 0,108,109
 130 -133 130 -133 124 -123 c 256,110,111
 118 -113 118 -113 118 -112 c 0,112,113
 100 -81 100 -81 100 -45 c 2,114,-1
 100 247 l 2,115,116
 100 261 100 261 110 269 c 0,117,118
 113 272 113 272 117 275 c 0,89,90
EndSplineSet
Validated: 1
EndChar

StartChar: y
Encoding: 121 121 30
Width: 200
GlyphClass: 1
Flags: W
LayerCount: 2
Fore
SplineSet
29 -100 m 128,-1,1
 29 -71 29 -71 50 -50 c 128,-1,2
 71 -29 71 -29 100 -29 c 128,-1,3
 129 -29 129 -29 150 -50 c 128,-1,4
 171 -71 171 -71 171 -100 c 128,-1,5
 171 -129 171 -129 150 -150 c 128,-1,6
 129 -171 129 -171 100 -171 c 128,-1,7
 71 -171 71 -171 50 -150 c 128,-1,0
 29 -129 29 -129 29 -100 c 128,-1,1
EndSplineSet
Validated: 1
EndChar

StartChar: degree
Encoding: 176 176 31
Width: 230
GlyphClass: 1
Flags: W
LayerCount: 2
Fore
SplineSet
172 689 m 128,-1,1
 172 713 172 713 155 730 c 128,-1,2
 138 747 138 747 114 747 c 128,-1,3
 90 747 90 747 73 730 c 128,-1,4
 56 713 56 713 56 689 c 128,-1,5
 56 665 56 665 73 648 c 128,-1,6
 90 631 90 631 114 631 c 128,-1,7
 138 631 138 631 155 648 c 128,-1,0
 172 665 172 665 172 689 c 128,-1,1
223 689 m 128,-1,9
 223 644 223 644 191 612 c 128,-1,10
 159 580 159 580 114 580 c 128,-1,11
 69 580 69 580 37 612 c 128,-1,12
 5 644 5 644 5 689 c 128,-1,13
 5 734 5 734 37 766 c 128,-1,14
 69 798 69 798 114 798 c 128,-1,15
 159 798 159 798 191 766 c 128,-1,8
 223 734 223 734 223 689 c 128,-1,9
EndSplineSet
EndChar

StartChar: d
Encoding: 100 100 32
Width: 800
Flags: W
HStem: -193 159<243.48 548.143> 222 155<252.811 557.993>
VStem: 100 162<-42.5625 234.938> 544 162<-74.7422 231.322 368.678 404 615 674.742>
LayerCount: 2
Fore
SplineSet
698 322 m 0,0,1
 687 310 687 310 669 310 c 0,2,3
 666 310 666 310 662 310 c 0,4,5
 656 309 656 309 652 309 c 0,6,7
 630 309 630 309 614 320 c 0,8,9
 602 327 602 327 551 386 c 0,10,11
 544 394 544 394 544 404 c 2,12,13
 544 404 544 404 544 456 c 1,14,-1
 544 506 l 1,15,-1
 544 554 l 1,16,-1
 544 615 l 2,17,18
 544 628 544 628 550 640 c 0,19,20
 558 658 558 658 580.5 707.5 c 128,-1,21
 603 757 603 757 605 761 c 0,22,23
 611 775 611 775 626 775 c 0,24,25
 634 775 634 775 641 770 c 0,26,27
 657 757 657 757 671 738 c 128,-1,28
 685 719 685 719 695 697 c 0,29,30
 706 672 706 672 706 645 c 2,31,32
 706 645 706 645 706 349 c 2,33,34
 706 339 706 339 705 335 c 0,35,36
 703 327 703 327 698 322 c 0,0,1
270 366 m 0,37,38
 288 377 288 377 310 377 c 2,39,-1
 530 377 l 2,40,41
 538 377 538 377 543 372 c 0,42,43
 558 355 558 355 590 321 c 0,44,45
 599 311 599 311 599 298 c 0,46,47
 599 284 599 284 589 274 c 0,48,49
 564 248 564 248 545 230 c 0,50,51
 538 222 538 222 526 222 c 2,52,-1
 307 222 l 2,53,54
 288 222 288 222 272 231 c 0,55,56
 267 234 267 234 196 275 c 0,57,58
 183 282 183 282 183 298 c 0,59,60
 183 313 183 313 196 321 c 0,61,62
 203 325 203 325 230 341.5 c 128,-1,63
 257 358 257 358 270 366 c 0,37,38
698 278 m 0,64,65
 703 273 703 273 705 265 c 0,66,67
 706 258 706 258 706 251 c 2,68,-1
 706 -45 l 2,69,70
 706 -72 706 -72 695 -97 c 0,71,72
 685 -119 685 -119 671 -138 c 0,73,74
 658 -156 658 -156 641 -170 c 0,75,76
 634 -175 634 -175 626 -175 c 0,77,78
 611 -175 611 -175 605 -161 c 0,79,80
 603 -157 603 -157 580.5 -107.5 c 128,-1,81
 558 -58 558 -58 550 -40 c 0,82,83
 544 -28 544 -28 544 -15 c 0,84,85
 544 18 544 18 544 45.5 c 128,-1,86
 544 73 544 73 544 94.5 c 128,-1,87
 544 116 544 116 544 144 c 0,88,89
 544 167 544 167 544 196 c 0,90,91
 544 206 544 206 551 214 c 0,92,93
 595 268 595 268 614 280 c 0,94,95
 630 291 630 291 652 291 c 0,96,97
 656 291 656 291 662 290.5 c 128,-1,98
 668 290 668 290 669 290 c 0,99,100
 688 289 688 289 698 278 c 0,64,65
156 -143 m 0,101,102
 160 -135 160 -135 255 -42 c 0,103,104
 263 -34 263 -34 275 -34 c 2,105,-1
 524 -34 l 2,106,107
 539 -34 539 -34 545 -47 c 0,108,109
 596 -161 596 -161 601 -172 c 0,110,111
 604 -179 604 -179 597 -185 c 0,112,113
 592 -190 592 -190 584 -191 c 0,114,115
 583 -191 583 -191 579.5 -191.5 c 128,-1,116
 576 -192 576 -192 575 -192 c 2,117,-1
 558 -193 l 1,118,-1
 229 -193 l 2,119,120
 203 -193 203 -193 182 -178 c 0,121,122
 172 -172 172 -172 167 -167 c 0,123,124
 158 -158 158 -158 156 -154.5 c 128,-1,125
 154 -151 154 -151 156 -143 c 0,101,102
117 275 m 0,126,127
 120 277 120 277 127 280 c 0,128,129
 135 283 135 283 144 283 c 0,130,131
 155 283 155 283 165 278 c 0,132,133
 174 273 174 273 207.5 254 c 128,-1,134
 241 235 241 235 252 228 c 0,135,136
 262 223 262 223 262 212 c 2,137,-1
 262 -6 l 2,138,139
 262 -22 262 -22 250 -33 c 0,140,141
 237 -46 237 -46 199 -84 c 128,-1,142
 161 -122 161 -122 155 -127 c 0,143,144
 150 -133 150 -133 142 -133 c 0,145,146
 130 -133 130 -133 124 -123 c 256,147,148
 118 -113 118 -113 118 -112 c 0,149,150
 100 -81 100 -81 100 -45 c 2,151,-1
 100 247 l 2,152,153
 100 261 100 261 110 269 c 0,154,155
 113 272 113 272 117 275 c 0,126,127
EndSplineSet
Validated: 1
EndChar

StartChar: t
Encoding: 116 116 33
Width: 800
Flags: W
LayerCount: 2
Fore
SplineSet
102 322 m 0,0,1
 97 327 97 327 95 335 c 0,2,3
 94 342 94 342 94 349 c 2,4,-1
 94 645 l 2,5,6
 94 672 94 672 105 697 c 0,7,8
 115 719 115 719 129 738 c 0,9,10
 142 756 142 756 159 770 c 0,11,12
 166 775 166 775 174 775 c 0,13,14
 189 775 189 775 195 761 c 0,15,16
 197 757 197 757 219.5 707.5 c 128,-1,17
 242 658 242 658 250 640 c 0,18,19
 256 628 256 628 256 615 c 2,20,-1
 256 554 l 1,21,-1
 256 506 l 1,22,-1
 256 456 l 1,23,-1
 256 404 l 2,24,25
 256 394 256 394 249 386 c 0,26,27
 205 332 205 332 186 320 c 0,28,29
 170 309 170 309 148 309 c 0,30,31
 144 309 144 309 138 309.5 c 128,-1,32
 132 310 132 310 131 310 c 0,33,34
 112 311 112 311 102 322 c 0,0,1
530 366 m 0,35,36
 543 358 543 358 570 341.5 c 128,-1,37
 597 325 597 325 604 321 c 0,38,39
 617 313 617 313 617 298 c 0,40,41
 617 282 617 282 604 275 c 0,42,43
 533 234 533 234 528 231 c 0,44,45
 512 222 512 222 493 222 c 2,46,47
 493 222 493 222 274 222 c 2,48,49
 262 222 262 222 255 230 c 0,50,51
 236 248 236 248 211 274 c 0,52,53
 201 284 201 284 201 298 c 0,54,55
 201 311 201 311 210 321 c 0,56,57
 242 355 242 355 257 372 c 0,58,59
 262 377 262 377 270 377 c 2,60,61
 270 377 270 377 490 377 c 2,62,63
 512 377 512 377 530 366 c 0,35,36
102 278 m 0,64,65
 112 289 112 289 131 290 c 0,66,67
 132 290 132 290 138 290.5 c 128,-1,68
 144 291 144 291 148 291 c 0,69,70
 170 291 170 291 186 280 c 0,71,72
 205 268 205 268 249 214 c 0,73,74
 256 206 256 206 256 196 c 0,75,76
 256 167 256 167 256 144 c 0,77,78
 256 116 256 116 256 94.5 c 128,-1,79
 256 73 256 73 256 45.5 c 128,-1,80
 256 18 256 18 256 -15 c 0,81,82
 256 -28 256 -28 250 -40 c 0,83,84
 242 -58 242 -58 219.5 -107.5 c 128,-1,85
 197 -157 197 -157 195 -161 c 0,86,87
 189 -175 189 -175 174 -175 c 0,88,89
 166 -175 166 -175 159 -170 c 0,90,91
 142 -156 142 -156 129 -138 c 0,92,93
 115 -119 115 -119 105 -97 c 0,94,95
 94 -72 94 -72 94 -45 c 2,96,97
 94 -45 94 -45 94 251 c 2,98,99
 94 258 94 258 95 265 c 0,100,101
 97 273 97 273 102 278 c 0,64,65
644 -143 m 0,102,103
 646 -151 646 -151 644 -154.5 c 128,-1,104
 642 -158 642 -158 633 -167 c 0,105,106
 628 -172 628 -172 618 -178 c 0,107,108
 597 -193 597 -193 571 -193 c 2,109,110
 571 -193 571 -193 242 -193 c 1,111,-1
 225 -192 l 2,112,113
 224 -192 224 -192 220.5 -191.5 c 128,-1,114
 217 -191 217 -191 216 -191 c 0,115,116
 208 -190 208 -190 203 -185 c 0,117,118
 196 -179 196 -179 199 -172 c 0,119,120
 204 -161 204 -161 255 -47 c 0,121,122
 261 -34 261 -34 276 -34 c 2,123,124
 276 -34 276 -34 525 -34 c 2,125,126
 537 -34 537 -34 545 -42 c 0,127,128
 640 -135 640 -135 644 -143 c 0,102,103
EndSplineSet
Validated: 1
EndChar

